<svg id="Layer_1" data-name="Layer 1" xmlns="http://www.w3.org/2000/svg" viewBox="0 0 744.03 779.57"><defs><style>.cls-1,.cls-2{stroke:#fff;stroke-linecap:round;}.cls-1,.cls-2,.cls-3,.cls-5{stroke-miterlimit:10;}.cls-1,.cls-2,.cls-3{stroke-width:4px;}.cls-2,.cls-4{fill:#fff;}.cls-3{stroke:#fffdfe;}.cls-5{fill:none;stroke:#000;stroke-width:9px;}</style></defs><title>logo</title><polygon class="cls-1" points="385.46 285.61 454.56 285.61 454.56 216.51 523.66 216.51 523.66 147.41 454.56 147.41 454.56 78.31 385.46 78.31 385.46 147.41 316.36 147.41 316.36 216.51 385.46 216.66 385.46 285.61"/><line class="cls-2" x1="317.58" y1="181.96" x2="350.91" y2="181.96"/><path class="cls-2" d="M619.23,304.92" transform="translate(-108.3 -122.96)"/><path class="cls-2" d="M564.68,304.92" transform="translate(-108.3 -122.96)"/><line class="cls-2" x1="490.32" y1="181.96" x2="523.66" y2="181.96"/><line class="cls-2" x1="420.01" y1="113.46" x2="420.01" y2="80.13"/><line class="cls-2" x1="420.01" y1="285.61" x2="420.01" y2="252.27"/><polygon class="cls-1" points="603.84 285.61 672.93 285.61 672.93 216.51 742.03 216.51 742.03 147.41 672.93 147.41 672.93 78.31 603.84 78.31 603.84 147.41 534.74 147.41 534.74 216.51 603.84 216.66 603.84 285.61"/><line class="cls-2" x1="535.95" y1="181.96" x2="569.29" y2="181.96"/><path class="cls-2" d="M837.61,304.92" transform="translate(-108.3 -122.96)"/><path class="cls-2" d="M783.06,304.92" transform="translate(-108.3 -122.96)"/><line class="cls-2" x1="708.7" y1="181.96" x2="742.03" y2="181.96"/><line class="cls-2" x1="638.39" y1="113.46" x2="638.39" y2="80.13"/><line class="cls-2" x1="638.39" y1="285.61" x2="638.39" y2="252.27"/><path class="cls-3" d="M422.1,370.1C408.14,434.85,359.32,482,272.4,482c-110.06,0-162.1-77.9-162.1-176.64C110.3,210.23,164,125,276,125c92.42,0,137.23,54.26,145.7,112.28h-75c-7.25-26.76-25.87-53.42-73.05-53.42-61.9,0-85.8,55.68-85.8,118.85,0,58.67,20.74,120.49,87.81,120.49,49,0,64.44-32.81,71-53.06Z" transform="translate(-108.3 -122.96)"/><circle class="cls-4" cx="401.45" cy="566.86" r="208.22"/><path d="M509.75,486.1a203.11,203.11,0,1,1-79.29,16,202.46,202.46,0,0,1,79.29-16m0-9C392.27,477.1,297,572.34,297,689.82s95.23,212.72,212.71,212.72S722.47,807.3,722.47,689.82,627.23,477.1,509.75,477.1Z" transform="translate(-108.3 -122.96)"/><line class="cls-5" x1="401.45" y1="354.14" x2="401.45" y2="779.57"/><line class="cls-5" x1="188.73" y1="566.86" x2="612.04" y2="566.86"/><line class="cls-5" x1="358.91" y1="358.39" x2="358.91" y2="775.32"/><line class="cls-5" x1="316.36" y1="373.29" x2="316.36" y2="758.3"/><line class="cls-5" x1="273.82" y1="396.68" x2="273.82" y2="734.9"/><line class="cls-5" x1="231.28" y1="441.35" x2="231.28" y2="690.23"/><line class="cls-5" x1="443.99" y1="358.39" x2="443.99" y2="775.32"/><line class="cls-5" x1="486.54" y1="373.29" x2="486.54" y2="760.43"/><line class="cls-5" x1="529.08" y1="398.81" x2="529.08" y2="734.9"/><line class="cls-5" x1="571.62" y1="441.35" x2="571.62" y2="690.23"/><line class="cls-5" x1="192.99" y1="524.31" x2="607.78" y2="524.31"/><line class="cls-5" x1="205.75" y1="481.77" x2="595.02" y2="481.77"/><line class="cls-5" x1="231.28" y1="441.35" x2="569.5" y2="441.35"/><line class="cls-5" x1="273.82" y1="398.81" x2="529.08" y2="398.81"/><line class="cls-5" x1="195.12" y1="609.4" x2="609.91" y2="609.4"/><line class="cls-5" x1="205.75" y1="649.82" x2="595.02" y2="649.82"/><line class="cls-5" x1="231.28" y1="690.23" x2="571.62" y2="690.23"/><line class="cls-5" x1="273.82" y1="734.9" x2="526.95" y2="734.9"/></svg>